<?xml version="1.0" encoding="UTF-8"?>
<svg id="Layer_1" data-name="Layer 1" xmlns="http://www.w3.org/2000/svg" viewBox="0 0 21.3 13.93">
  <defs>
    <style>
      .cls-1 {
        fill: #cfcdcd;
        stroke-width: 0px;
      }
    </style>
  </defs>
  <path class="cls-1" d="m21.3,12.75V1.03c0-.35-.15-.66-.43-.86C20.61,0,20.33,0,20.04,0H6.13c-.32,0-.63.11-.87.33-.07.06-.13.14-.19.21-.69.82-1.39,1.63-2.08,2.45-.79.93-1.58,1.86-2.37,2.79-.23.27-.53.56-.6.92-.09.41.03.78.29,1.09.07.08.14.17.21.25.76.9,1.52,1.8,2.29,2.69.73.86,1.46,1.72,2.18,2.57.06.07.11.13.17.2.24.27.58.42.94.42.16,0,.33,0,.49,0h13.73c.54-.03.95-.46.96-1,0-.06,0-.12,0-.17Zm-7.32-5.41c.64.65,1.28,1.3,1.92,1.94.3.31.28.79,0,1.09-.28.31-.79.29-1.08,0-.23-.24-.47-.47-.7-.71-.53-.54-1.06-1.07-1.59-1.61-.12.12-.25.25-.37.38-.64.65-1.28,1.3-1.92,1.94-.3.31-.77.28-1.08,0-.3-.28-.28-.81,0-1.09l.7-.71c.53-.54,1.06-1.07,1.59-1.61-.12-.13-.25-.25-.37-.38l-1.92-1.94c-.3-.31-.28-.79,0-1.09.28-.31.79-.29,1.08,0,.23.24.47.47.7.71.53.54,1.06,1.07,1.59,1.61.12-.13.25-.25.37-.38.64-.65,1.28-1.3,1.92-1.94.3-.31.77-.28,1.08,0,.3.28.28.81,0,1.09-.23.24-.47.47-.7.71-.53.54-1.06,1.07-1.59,1.61l.37.38Z"/>
</svg>