<svg width="10" height="10" viewBox="0 0 10 10" fill="none" xmlns="http://www.w3.org/2000/svg">
<path d="M8.88729 6.07251L7.62947 6.23759C7.60018 6.24139 7.5728 6.25559 7.55146 6.27806C7.53012 6.30053 7.51598 6.33004 7.51117 6.36216L7.37519 7.2431C7.31838 7.62989 7.13878 7.98176 6.86848 8.23581C6.59819 8.48985 6.25483 8.62951 5.8998 8.6298C5.82089 8.62844 5.74221 8.61991 5.66456 8.60429L2.08149 7.96347C2.0619 7.95996 2.04185 7.96123 2.02275 7.96719C2.00365 7.97314 1.98596 7.98364 1.97093 7.99794C1.9559 8.01224 1.94389 8.03 1.93573 8.04997C1.92758 8.06994 1.92349 8.09164 1.92375 8.11354L1.94958 8.71385C1.96462 9.06077 2.10017 9.38797 2.32807 9.62747C2.55597 9.86698 2.85871 10.0004 3.17341 10H3.23188L7.96806 9.74937C8.1286 9.7409 8.28605 9.69762 8.43143 9.62199C8.57681 9.54636 8.70727 9.43986 8.81536 9.30859C8.92344 9.17731 9.00704 9.02382 9.06138 8.85688C9.11572 8.68995 9.13973 8.51283 9.13205 8.33566L9.03822 6.21508C9.03741 6.19454 9.03278 6.17441 9.02462 6.15593C9.01646 6.13744 9.00495 6.12101 8.99079 6.10764C8.97664 6.09427 8.96015 6.08426 8.94235 6.07821C8.92454 6.07217 8.9058 6.07023 8.88729 6.07251Z" fill="white"/>
<path d="M4.24221 6.68032C4.18306 6.68752 4.12358 6.69103 4.06407 6.69082C3.72326 6.69027 3.39283 6.56129 3.12749 6.32521C2.86215 6.08914 2.67782 5.76013 2.60501 5.39267C2.59688 5.35542 2.57616 5.32302 2.54709 5.30209C2.51801 5.28116 2.48279 5.2733 2.44863 5.28011C2.25245 5.32394 2.05967 5.38466 1.87208 5.4617C1.82839 5.47885 1.78246 5.48797 1.7361 5.48872C1.64479 5.49032 1.55563 5.45807 1.4829 5.39712C1.41017 5.33617 1.35808 5.25005 1.33496 5.15255C1.31061 5.03909 1.32574 4.91969 1.37737 4.81796C1.42899 4.71624 1.51334 4.63962 1.61371 4.60327C1.85656 4.50654 2.10626 4.43225 2.36024 4.38115C2.39414 4.37453 2.4245 4.35396 2.44519 4.3236C2.46588 4.29324 2.47537 4.25535 2.47175 4.21757L2.25146 2.16003C2.24313 2.08737 2.2395 2.01415 2.24058 1.94092C2.24105 1.90517 2.22994 1.8704 2.20925 1.84289C2.18856 1.81537 2.15965 1.79692 2.12772 1.79084L1.91151 1.75182C1.59755 1.69078 1.27424 1.76086 1.00452 1.94842C0.861987 2.0504 0.740497 2.18434 0.647957 2.34155C0.555416 2.49876 0.493898 2.67571 0.467403 2.86089L0.015949 5.91943C-0.0362546 6.27287 0.0408482 6.63471 0.230307 6.92543C0.419765 7.21614 0.706071 7.41191 1.02628 7.46972L5.70807 8.31164C5.77324 8.3236 5.83918 8.32962 5.90524 8.32965C6.19578 8.32951 6.4768 8.21529 6.69803 8.00742C6.91926 7.79956 7.06626 7.51161 7.11275 7.19508L7.21745 6.48372C7.22077 6.46075 7.21921 6.43724 7.21288 6.41505C7.20656 6.39285 7.19565 6.37259 7.18101 6.35585C7.16637 6.33911 7.14841 6.32636 7.12854 6.3186C7.10867 6.31084 7.08743 6.30828 7.06651 6.31113L4.24221 6.68032Z" fill="white"/>
<path d="M9.99144 4.2671L9.66101 1.19204C9.64213 1.01583 9.59197 0.845449 9.5134 0.690638C9.43484 0.535827 9.3294 0.399619 9.20312 0.289796C9.07684 0.179972 8.93219 0.098686 8.77744 0.0505818C8.62269 0.00247756 8.46086 -0.011502 8.30121 0.00944175L3.59086 0.624753C3.4312 0.645594 3.27683 0.700952 3.13656 0.787663C2.99629 0.874373 2.87287 0.990738 2.77336 1.13011C2.67385 1.26948 2.6002 1.42912 2.55662 1.59992C2.51303 1.77071 2.50036 1.94931 2.51934 2.12551L2.85113 5.19907C2.88637 5.527 3.02924 5.82932 3.25274 6.04888C3.47623 6.26844 3.76486 6.39003 4.06407 6.39067C4.11269 6.39062 4.16126 6.38762 4.20957 6.38167L8.91992 5.76636C9.07958 5.74551 9.23396 5.69016 9.37423 5.60345C9.5145 5.51674 9.63791 5.40037 9.73742 5.261C9.83693 5.12163 9.91058 4.96199 9.95417 4.79119C9.99776 4.6204 10.0104 4.4418 9.99144 4.2656V4.2671ZM3.71325 2.53822C3.70495 2.46851 3.71311 2.39762 3.73693 2.33241C3.76076 2.2672 3.79944 2.20989 3.84923 2.16603C5.15192 1.06898 6.75104 2.74383 8.09588 2.03997C8.14965 2.00951 8.2093 1.99382 8.26974 1.99426C8.33018 1.9947 8.38963 2.01124 8.44303 2.04248C8.49644 2.07372 8.54222 2.11873 8.57647 2.17369C8.61073 2.22864 8.63246 2.29192 8.6398 2.35813C8.64796 2.42783 8.63974 2.49868 8.61593 2.56386C8.59211 2.62904 8.55351 2.68636 8.50382 2.73032C7.20113 3.82737 5.60201 2.15103 4.25717 2.85488C4.20354 2.88569 4.14394 2.90169 4.08348 2.90151C4.02302 2.90133 3.96351 2.88497 3.91003 2.85384C3.85656 2.82271 3.81072 2.77773 3.77644 2.72276C3.74217 2.66779 3.72049 2.60447 3.71325 2.53822ZM8.65884 4.22658C7.35615 5.32213 5.75703 3.64728 4.41218 4.35114C4.35856 4.38195 4.29896 4.39795 4.2385 4.39777C4.17804 4.39759 4.11852 4.38123 4.06505 4.3501C4.01157 4.31896 3.96573 4.27398 3.93146 4.21902C3.89719 4.16405 3.8755 4.10073 3.86826 4.03448C3.85997 3.96477 3.86813 3.89388 3.89195 3.82867C3.91578 3.76346 3.95446 3.70615 4.00424 3.66229C5.30693 2.56524 6.90606 4.24008 8.2509 3.53623C8.30467 3.50576 8.36431 3.49008 8.42475 3.49052C8.48519 3.49096 8.54464 3.5075 8.59805 3.53873C8.65145 3.56997 8.69723 3.61499 8.73149 3.66994C8.76575 3.7249 8.78748 3.78817 8.79482 3.85439C8.80298 3.92409 8.79476 3.99493 8.77095 4.06011C8.74713 4.1253 8.70853 4.18262 8.65884 4.22658Z" fill="white"/>
</svg>
