<svg width="24" height="23" viewBox="0 0 24 23" fill="none" xmlns="http://www.w3.org/2000/svg">
<path d="M21.3295 13.9668L18.3107 14.3465C18.2404 14.3552 18.1747 14.3879 18.1235 14.4395C18.0723 14.4912 18.0384 14.5591 18.0268 14.633L17.7005 16.6591C17.5641 17.5487 17.1331 18.358 16.4844 18.9424C15.8357 19.5267 15.0116 19.8479 14.1595 19.8486C13.9701 19.8454 13.7813 19.8258 13.5949 19.7899L4.99557 18.316C4.94855 18.3079 4.90043 18.3108 4.85459 18.3245C4.80876 18.3382 4.76631 18.3624 4.73023 18.3953C4.69416 18.4282 4.66533 18.469 4.64576 18.5149C4.6262 18.5609 4.61638 18.6108 4.617 18.6612L4.679 20.0419C4.71509 20.8398 5.0404 21.5923 5.58736 22.1432C6.13433 22.6941 6.8609 23.0009 7.61617 23H7.75651L19.1234 22.4236C19.5086 22.4041 19.8865 22.3045 20.2354 22.1306C20.5844 21.9566 20.8974 21.7117 21.1569 21.4097C21.4163 21.1078 21.6169 20.7548 21.7473 20.3708C21.8777 19.9869 21.9354 19.5795 21.9169 19.172L21.6917 14.2947C21.6898 14.2474 21.6787 14.2011 21.6591 14.1586C21.6395 14.1161 21.6119 14.0783 21.5779 14.0476C21.5439 14.0168 21.5044 13.9938 21.4616 13.9799C21.4189 13.966 21.3739 13.9615 21.3295 13.9668Z" fill="white"/>
<path d="M10.1813 15.3647C10.0393 15.3813 9.8966 15.3894 9.75378 15.3889C8.93581 15.3876 8.14278 15.091 7.50597 14.548C6.86917 14.005 6.42677 13.2483 6.25202 12.4031C6.23252 12.3175 6.18279 12.2429 6.11301 12.1948C6.04323 12.1467 5.9587 12.1286 5.87672 12.1443C5.40587 12.2451 4.94321 12.3847 4.49298 12.5619C4.38814 12.6013 4.27789 12.6223 4.16663 12.624C3.94749 12.6277 3.73352 12.5536 3.55897 12.4134C3.38442 12.2732 3.25939 12.0751 3.20389 11.8509C3.14545 11.5899 3.18178 11.3153 3.30568 11.0813C3.42958 10.8474 3.63201 10.6711 3.87292 10.5875C4.45573 10.365 5.05502 10.1942 5.66459 10.0767C5.74593 10.0614 5.81879 10.0141 5.86845 9.94428C5.91812 9.87446 5.9409 9.78731 5.9322 9.70042L5.40351 4.96807C5.38352 4.80095 5.37479 4.63254 5.3774 4.46412C5.37853 4.38188 5.35186 4.30193 5.3022 4.23864C5.25254 4.17536 5.18315 4.13291 5.10653 4.11894L4.58763 4.02919C3.83412 3.8888 3.05819 4.04999 2.41086 4.48137C2.06877 4.71591 1.77719 5.02399 1.5551 5.38557C1.333 5.74715 1.18535 6.15413 1.12177 6.58004L0.0382776 13.6147C-0.087011 14.4276 0.0980357 15.2598 0.552736 15.9285C1.00744 16.5971 1.69457 17.0474 2.46307 17.1804L13.6994 19.1168C13.8558 19.1443 14.014 19.1581 14.1726 19.1582C14.8699 19.1579 15.5443 18.8952 16.0753 18.4171C16.6062 17.939 16.959 17.2767 17.0706 16.5487L17.3219 14.9126C17.3299 14.8597 17.3261 14.8056 17.3109 14.7546C17.2957 14.7036 17.2696 14.657 17.2344 14.6185C17.1993 14.58 17.1562 14.5506 17.1085 14.5328C17.0608 14.5149 17.0098 14.509 16.9596 14.5156L10.1813 15.3647Z" fill="white"/>
<path d="M23.9795 9.81432L23.1864 2.74169C23.1411 2.3364 23.0207 1.94453 22.8322 1.58847C22.6436 1.2324 22.3906 0.919124 22.0875 0.66653C21.7844 0.413936 21.4373 0.226978 21.0659 0.116338C20.6945 0.00569838 20.3061 -0.0264547 19.9229 0.021716L8.61807 1.43693C8.23489 1.48487 7.86438 1.61219 7.52774 1.81162C7.19109 2.01106 6.89489 2.2787 6.65607 2.59925C6.41725 2.9198 6.24049 3.28698 6.13588 3.67981C6.03127 4.07264 6.00088 4.48342 6.04642 4.88868L6.84272 11.9579C6.92729 12.7121 7.27018 13.4074 7.80657 13.9124C8.34296 14.4174 9.03568 14.6971 9.75378 14.6985C9.87045 14.6984 9.98703 14.6915 10.103 14.6778L21.4078 13.2626C21.791 13.2147 22.1615 13.0874 22.4982 12.8879C22.8348 12.6885 23.131 12.4209 23.3698 12.1003C23.6086 11.7798 23.7854 11.4126 23.89 11.0197C23.9946 10.6269 24.025 10.2161 23.9795 9.81087V9.81432ZM8.91179 5.83791C8.89188 5.67758 8.91147 5.51452 8.96864 5.36455C9.02582 5.21457 9.11865 5.08276 9.23814 4.98188C12.3646 2.45865 16.2025 6.3108 19.4301 4.69193C19.5592 4.62186 19.7023 4.5858 19.8474 4.5868C19.9924 4.58781 20.1351 4.62585 20.2633 4.6977C20.3915 4.76955 20.5013 4.87307 20.5835 4.99948C20.6658 5.12588 20.7179 5.27141 20.7355 5.4237C20.7551 5.58401 20.7354 5.74696 20.6782 5.89687C20.6211 6.04679 20.5284 6.17863 20.4092 6.27973C17.2827 8.80296 13.4448 4.94736 10.2172 6.56623C10.0885 6.63709 9.94546 6.67389 9.80036 6.67347C9.65526 6.67306 9.51241 6.63543 9.38407 6.56383C9.25573 6.49222 9.14572 6.38877 9.06347 6.26235C8.98121 6.13592 8.92917 5.99028 8.91179 5.83791ZM20.7812 9.72113C17.6548 12.2409 13.8169 8.38875 10.5892 10.0076C10.4605 10.0785 10.3175 10.1153 10.1724 10.1149C10.0273 10.1144 9.88446 10.0768 9.75612 10.0052C9.62778 9.93362 9.51776 9.83017 9.43551 9.70374C9.35325 9.57731 9.30121 9.43167 9.28383 9.2793C9.26393 9.11897 9.28351 8.95592 9.34068 8.80594C9.39786 8.65596 9.49069 8.52415 9.61019 8.42327C12.7366 5.90004 16.5745 9.75219 19.8022 8.13332C19.9312 8.06325 20.0744 8.02719 20.2194 8.02819C20.3645 8.0292 20.5071 8.06724 20.6353 8.13909C20.7635 8.21094 20.8734 8.31447 20.9556 8.44087C21.0378 8.56727 21.0899 8.7128 21.1076 8.86509C21.1272 9.0254 21.1074 9.18835 21.0503 9.33826C20.9931 9.48818 20.9005 9.62003 20.7812 9.72113Z" fill="white"/>
</svg>
