<svg width="22" height="28" viewBox="0 0 22 28" fill="none" xmlns="http://www.w3.org/2000/svg">
<path d="M19.6711 1.85087C19.5876 1.77525 19.4901 1.7168 19.3841 1.67886C19.2781 1.64093 19.1656 1.62425 19.0531 1.62979C18.9407 1.63532 18.8304 1.66296 18.7286 1.71111C18.6268 1.75927 18.5355 1.82701 18.4599 1.91046L16.5342 3.94854C16.455 4.03001 16.3928 4.1264 16.3512 4.23212C16.3095 4.33783 16.2894 4.45076 16.2918 4.56435C16.2942 4.67793 16.3192 4.7899 16.3652 4.89375C16.4113 4.9976 16.4775 5.09126 16.5601 5.16929C16.6427 5.24732 16.7399 5.30815 16.8462 5.34826C16.9525 5.38837 17.0657 5.40696 17.1793 5.40293C17.2928 5.39891 17.4044 5.37237 17.5076 5.32484C17.6108 5.27731 17.7035 5.20974 17.7804 5.12607L19.7061 3.08799C19.7873 3.00564 19.8509 2.90772 19.8932 2.80014C19.9356 2.69255 19.9557 2.57752 19.9524 2.46195C19.9492 2.34639 19.9225 2.23268 19.8742 2.12766C19.8258 2.02265 19.7567 1.92849 19.6711 1.85087ZM15.2099 0.24015C15.0802 0.139483 14.9243 0.0781712 14.7608 0.0635018C14.5973 0.0488324 14.433 0.0814224 14.2875 0.157398C14.1419 0.233374 14.0212 0.34954 13.9398 0.492089C13.8583 0.634639 13.8195 0.797577 13.828 0.961538L13.8924 3.0127C13.8964 3.12542 13.9226 3.23625 13.9694 3.33885C14.0163 3.44145 14.0829 3.53382 14.1654 3.61069C14.248 3.68755 14.3448 3.7474 14.4505 3.78682C14.5562 3.82624 14.6686 3.84446 14.7813 3.84044C14.894 3.83641 15.0048 3.81023 15.1074 3.76337C15.21 3.71651 15.3024 3.64991 15.3792 3.56735C15.4561 3.4848 15.5159 3.38791 15.5553 3.28223C15.5947 3.17655 15.6129 3.06414 15.6089 2.95143L15.5448 0.912884C15.5437 0.78268 15.513 0.654431 15.455 0.537868C15.397 0.421305 15.3131 0.31949 15.2099 0.24015ZM21.4085 6.09712C21.2507 5.98591 21.06 5.93122 20.8672 5.94191L18.8218 5.98724C18.709 5.98959 18.5978 6.01413 18.4946 6.05945C18.3913 6.10478 18.2979 6.17 18.2199 6.25141C18.1418 6.33281 18.0805 6.42879 18.0396 6.53387C17.9986 6.63896 17.9787 6.75108 17.9811 6.86385C17.9834 6.97661 18.008 7.0878 18.0533 7.19108C18.0987 7.29435 18.1639 7.38768 18.2453 7.46573C18.3268 7.54379 18.4228 7.60504 18.5278 7.646C18.6329 7.68695 18.7451 7.7068 18.8578 7.70442L20.9093 7.65259C21.0912 7.65291 21.2684 7.5954 21.4154 7.48838C21.5624 7.38136 21.6716 7.23036 21.7272 7.05722C21.7828 6.88408 21.7818 6.69775 21.7245 6.52516C21.6673 6.35258 21.5566 6.20268 21.4085 6.09712ZM16.0147 5.68146C15.0436 4.76384 13.4772 4.77837 12.5551 5.75424L8.56253 9.97974C8.39988 9.3404 8.1823 8.71977 7.66666 8.2364C7.28565 7.87914 6.73538 7.63922 6.15918 7.64743C5.42391 7.65792 4.76308 8.14504 4.42698 8.71354C4.09089 9.28203 3.92995 9.93469 3.78164 10.6838C3.48503 12.1819 3.30528 14.0845 2.8102 16.0806C2.64354 16.7526 2.56138 17.3978 2.54899 18.0084L0.782696 19.8777C0.424198 20.2571 0.319764 20.7753 0.347052 21.2229C0.374339 21.6705 0.513256 22.0934 0.718963 22.5326C1.13038 23.411 1.82395 24.3384 2.74028 25.2042C3.65661 26.07 4.62092 26.7088 5.52208 27.071C5.97266 27.2521 6.40847 27.3717 6.85723 27.3743C7.30599 27.3768 7.81637 27.2433 8.17561 26.8631L9.98483 24.9484C11.3013 24.7589 12.5595 24.1479 13.5336 23.117L16.1032 20.3974C17.0201 19.427 16.9537 17.8656 15.9738 16.9457C15.8463 16.8256 15.7434 16.7791 15.6388 16.7152C15.8728 15.8648 15.6524 14.9097 14.9693 14.2642C14.7639 14.0701 14.5325 13.9276 14.287 13.8161C14.2767 13.1688 14.0337 12.5203 13.5293 12.0436C13.5022 12.018 13.467 12.0071 13.4391 11.983L16.1315 9.1335C17.0493 8.16219 16.9904 6.6033 16.0147 5.68146ZM14.8372 6.92768C15.1603 7.233 15.1563 7.66916 14.8853 7.95597L10.7332 12.3502C10.6541 12.4317 10.5918 12.5281 10.5502 12.6338C10.5086 12.7395 10.4884 12.8525 10.4909 12.966C10.4933 13.0796 10.5182 13.1916 10.5643 13.2954C10.6104 13.3993 10.6766 13.493 10.7592 13.571C10.8418 13.649 10.939 13.7098 11.0453 13.75C11.1516 13.7901 11.2648 13.8086 11.3784 13.8046C11.4919 13.8006 11.6035 13.7741 11.7067 13.7265C11.8099 13.679 11.9026 13.6114 11.9795 13.5278L12.2554 13.2357C12.2871 13.2579 12.322 13.2617 12.3517 13.2898C12.6046 13.5287 12.6521 13.8557 12.5456 14.1118C12.4914 14.2394 12.469 14.3783 12.4803 14.5164C12.4916 14.6546 12.5362 14.788 12.6103 14.9051C12.6844 15.0222 12.7859 15.1197 12.9059 15.189C13.0259 15.2584 13.161 15.2976 13.2995 15.3033C13.4741 15.3114 13.647 15.3737 13.7917 15.5104C14.107 15.8083 14.1176 16.2323 13.877 16.5124C13.786 16.6174 13.7219 16.743 13.6902 16.8783C13.6585 17.0136 13.6602 17.1546 13.6951 17.2891C13.7299 17.4236 13.797 17.5476 13.8905 17.6505C13.9839 17.7533 14.101 17.8319 14.2316 17.8794C14.2297 17.8777 14.4089 17.9648 14.5522 18.0472C14.6954 18.1297 14.8702 18.2614 14.7963 18.1919C15.1182 18.496 15.1251 18.9362 14.857 19.2199L12.2873 21.9394C10.6004 23.7248 7.74298 23.7761 5.8778 22.0137C4.61233 20.818 3.82403 19.1017 4.47064 16.4947C5.00243 14.3506 5.19798 12.3709 5.46519 11.0214C5.59878 10.3466 5.76588 9.83281 5.91095 9.58744C6.05601 9.34207 6.02743 9.36718 6.18259 9.36496C6.34174 9.3627 6.3899 9.38964 6.49562 9.48875C6.60804 9.59418 6.86546 10.1023 7.00497 10.744C7.14449 11.3857 7.2185 12.1321 7.26311 12.7202C7.26702 12.8358 7.29428 12.9494 7.34324 13.0542C7.3922 13.1589 7.46185 13.2527 7.54801 13.3299C7.63416 13.407 7.73503 13.466 7.84455 13.5031C7.95407 13.5403 8.06998 13.5549 8.1853 13.5461C8.30061 13.5373 8.41295 13.5052 8.51556 13.4518C8.61816 13.3985 8.70891 13.3249 8.78234 13.2356C8.85577 13.1462 8.91036 13.0429 8.94284 12.9319C8.97531 12.8209 8.98499 12.7045 8.97129 12.5897C8.96114 12.4558 8.92068 12.2612 8.9072 12.1114L13.8014 6.93176C14.0747 6.64252 14.5186 6.62663 14.8372 6.92768ZM2.83233 20.2049C3.19235 21.4415 3.86535 22.471 4.70027 23.2599C5.57166 24.0833 6.61714 24.6185 7.70828 24.8613L6.95393 25.6596C6.94516 25.6604 6.92508 25.6625 6.86556 25.6621C6.72956 25.6614 6.47145 25.6117 6.1594 25.4863C5.5353 25.2355 4.70251 24.6994 3.91781 23.958C3.1331 23.2165 2.55588 22.4199 2.27147 21.8127C2.12926 21.5091 2.06419 21.2527 2.05595 21.1176C2.05237 21.059 2.04708 21.0447 2.04731 21.0357L2.83233 20.2049Z" fill="#64A2FF"/>
</svg>
