<svg width="10" height="10" viewBox="0 0 10 10" fill="none" xmlns="http://www.w3.org/2000/svg">
<path d="M4.99648 3.92241C5.82852 3.2761 6.91332 3.05324 7.92439 3.32068C7.93493 3.25382 7.93493 3.18696 7.93493 3.1201C7.93493 1.3929 6.61842 0 4.99648 0C3.37455 0 2.04751 1.3929 2.04751 3.10895C2.04751 3.17581 2.04751 3.24267 2.05804 3.30953C3.07965 3.0421 4.15392 3.26496 4.99648 3.92241Z" fill="white"/>
<path d="M3.59572 6.48535C2.64784 6.05076 1.92113 5.17045 1.63676 4.08956C1.57357 4.12299 1.52091 4.15642 1.46825 4.18985C0.783666 4.60214 0.299192 5.28188 0.0990827 6.08419C-0.101026 6.8865 0.00429428 7.72224 0.39398 8.44655C0.783666 9.17086 1.42612 9.68345 2.18443 9.89517C2.94274 10.1069 3.74317 9.99546 4.41722 9.58316C4.46988 9.54973 4.52254 9.5163 4.5752 9.48287C3.83796 8.68056 3.47987 7.57738 3.59572 6.48535Z" fill="white"/>
<path d="M2.9322 3.77755C2.6689 3.77755 2.4056 3.81098 2.15283 3.88898C2.374 4.78044 2.94274 5.51589 3.70104 5.9059C3.77477 5.60503 3.89062 5.32645 4.03807 5.04787C4.19605 4.76929 4.37509 4.52414 4.5752 4.30128C4.09073 3.95584 3.51147 3.77755 2.9322 3.77755Z" fill="white"/>
<path d="M5.78639 6.11762C5.7232 5.85018 5.61788 5.58275 5.48096 5.3376C5.34404 5.09245 5.17553 4.86958 4.99648 4.669C4.80691 4.86958 4.63839 5.09245 4.50148 5.3376C4.36456 5.59389 4.25924 5.85018 4.19605 6.11762C4.44882 6.19562 4.71212 6.22905 4.98595 6.22905C5.27032 6.22905 5.53362 6.19562 5.78639 6.11762Z" fill="white"/>
<path d="M6.29193 5.9059C7.05023 5.51589 7.6295 4.78044 7.84014 3.88898C7.58737 3.81098 7.32407 3.77755 7.06077 3.77755C6.4815 3.77755 5.90224 3.95584 5.41777 4.30128C5.61787 4.52414 5.79692 4.76929 5.9549 5.04787C6.10235 5.32645 6.2182 5.61618 6.29193 5.9059Z" fill="white"/>
<path d="M5.87064 6.68592C5.58628 6.75278 5.30191 6.79736 4.99648 6.79736C4.69105 6.79736 4.39616 6.75278 4.12232 6.67478C4.06966 7.56624 4.38563 8.46884 4.99648 9.104C5.60734 8.46884 5.9233 7.58852 5.87064 6.68592Z" fill="white"/>
<path d="M9.89389 6.08419C9.69378 5.28188 9.2093 4.61329 8.52472 4.18985L8.34568 4.08956C8.06131 5.15931 7.34513 6.05076 6.38671 6.48535C6.5131 7.57738 6.15501 8.68056 5.41777 9.47173C5.47043 9.50516 5.52309 9.54973 5.57575 9.58316C6.26033 9.99546 7.05023 10.1069 7.80854 9.89517C8.56685 9.68345 9.19877 9.17086 9.59899 8.44655C9.99921 7.72224 10.1045 6.8865 9.89389 6.08419Z" fill="white"/>
</svg>
