<svg width="10" height="10" viewBox="0 0 10 10" fill="none" xmlns="http://www.w3.org/2000/svg">
<path fill-rule="evenodd" clip-rule="evenodd" d="M5.25 10H1.25C0.918479 10 0.600537 9.86847 0.366117 9.63435C0.131696 9.40022 0 9.08269 0 8.75159C0 8.42049 0.131696 8.10295 0.366117 7.86882C0.600537 7.6347 0.918479 7.50317 1.25 7.50317H1.525C1.67 6.77909 2.435 6.25476 3.2 6.25476C3.49452 6.25777 3.78269 6.34066 4.03369 6.49459C4.28469 6.64852 4.48907 6.86768 4.625 7.12865C4.82106 7.03993 5.03486 6.99723 5.25 7.00381C5.64782 7.00381 6.02936 7.16164 6.31066 7.44259C6.59196 7.72354 6.75 8.10458 6.75 8.5019C6.75 8.89922 6.59196 9.28027 6.31066 9.56122C6.02936 9.84216 5.64782 10 5.25 10ZM9.5 8.75159H9.75C9.8163 8.75159 9.87989 8.77789 9.92678 8.82472C9.97366 8.87154 10 8.93505 10 9.00127C10 9.06749 9.97366 9.131 9.92678 9.17782C9.87989 9.22465 9.8163 9.25095 9.75 9.25095H9.5V9.50063C9.5 9.56685 9.47366 9.63036 9.42678 9.67719C9.37989 9.72401 9.3163 9.75032 9.25 9.75032C9.1837 9.75032 9.12011 9.72401 9.07322 9.67719C9.02634 9.63036 9 9.56685 9 9.50063V9.25095H8.75C8.6837 9.25095 8.62011 9.22465 8.57322 9.17782C8.52634 9.131 8.5 9.06749 8.5 9.00127C8.5 8.93505 8.52634 8.87154 8.57322 8.82472C8.62011 8.77789 8.6837 8.75159 8.75 8.75159H9V8.5019C9 8.43568 9.02634 8.37218 9.07322 8.32535C9.12011 8.27853 9.1837 8.25222 9.25 8.25222C9.3163 8.25222 9.37989 8.27853 9.42678 8.32535C9.47366 8.37218 9.5 8.43568 9.5 8.5019V8.75159ZM7.1575 9.10114C8.13774 8.66896 8.94287 7.91846 9.44211 6.97157C9.94134 6.02467 10.1054 4.93701 9.9075 3.88527C9.9075 3.81905 9.88116 3.75554 9.83428 3.70872C9.78739 3.66189 9.7238 3.63558 9.6575 3.63558C9.5912 3.63558 9.52761 3.66189 9.48072 3.70872C9.43384 3.75554 9.4075 3.81905 9.4075 3.88527C9.29613 4.36352 9.05842 4.8032 8.71912 5.15854C8.37982 5.51388 7.95135 5.77188 7.47832 5.90567C7.00528 6.03947 6.50498 6.04416 6.02951 5.91927C5.55404 5.79437 5.12079 5.54446 4.77487 5.19555C4.42895 4.84664 4.18301 4.41149 4.06266 3.93542C3.94231 3.45934 3.95195 2.95975 4.09058 2.48866C4.2292 2.01756 4.49175 1.5922 4.85087 1.25686C5.21 0.921523 5.65257 0.688468 6.1325 0.581964C6.1988 0.581964 6.26239 0.555658 6.30928 0.508833C6.35616 0.462009 6.3825 0.398501 6.3825 0.332281C6.3825 0.266061 6.35616 0.202553 6.30928 0.155728C6.26239 0.108904 6.1988 0.0825979 6.1325 0.0825979C5.44505 -0.0472236 4.73738 -0.0237749 4.06005 0.151268C3.38273 0.326311 2.75249 0.648626 2.21437 1.09518C1.67626 1.54172 1.24356 2.10148 0.947193 2.73444C0.650831 3.36739 0.498129 4.05792 0.5 4.75666C0.498658 5.57876 0.712381 6.38695 1.12 7.10118C1.28346 6.70788 1.56161 6.37278 1.91829 6.13945C2.27497 5.90613 2.69368 5.78536 3.12 5.79284C3.43864 5.79007 3.75405 5.85677 4.04421 5.9883C4.33438 6.11983 4.59231 6.31302 4.8 6.55438C5.09328 6.48674 5.39807 6.48608 5.69163 6.55247C5.9852 6.61885 6.25998 6.75055 6.49549 6.93776C6.731 7.12497 6.92116 7.36285 7.0518 7.63368C7.18244 7.9045 7.25019 8.20129 7.25 8.5019C7.25015 8.70521 7.21895 8.90732 7.1575 9.10114ZM6.5 1.19868C6.51355 1.14469 6.54477 1.09677 6.5887 1.06253C6.63264 1.02829 6.68677 1.0097 6.7425 1.0097C6.79823 1.0097 6.85236 1.02829 6.8963 1.06253C6.94023 1.09677 6.97145 1.14469 6.985 1.19868L7.36 2.66432L8.3375 3.02386C8.38576 3.04136 8.42746 3.07327 8.45693 3.11526C8.4864 3.15725 8.50221 3.20729 8.50221 3.25856C8.50221 3.30984 8.4864 3.35988 8.45693 3.40187C8.42746 3.44386 8.38576 3.47577 8.3375 3.49327L7.3675 3.85281L7 5.31845C6.98645 5.37244 6.95523 5.42035 6.9113 5.45459C6.86736 5.48883 6.81323 5.50743 6.7575 5.50743C6.70177 5.50743 6.64764 5.48883 6.6037 5.45459C6.55977 5.42035 6.52855 5.37244 6.515 5.31845L6.14 3.85281L5.17 3.49327C5.12174 3.47577 5.08004 3.44386 5.05057 3.40187C5.0211 3.35988 5.00529 3.30984 5.00529 3.25856C5.00529 3.20729 5.0211 3.15725 5.05057 3.11526C5.08004 3.07327 5.12174 3.04136 5.17 3.02386L6.14 2.66432L6.5 1.19868ZM9.5 0.512052H9.75C9.8163 0.512052 9.87989 0.538358 9.92678 0.585183C9.97366 0.632007 10 0.695515 10 0.761735C10 0.827955 9.97366 0.891463 9.92678 0.938288C9.87989 0.985112 9.8163 1.01142 9.75 1.01142H9.5V1.2611C9.5 1.32732 9.47366 1.39083 9.42678 1.43765C9.37989 1.48448 9.3163 1.51078 9.25 1.51078C9.1837 1.51078 9.12011 1.48448 9.07322 1.43765C9.02634 1.39083 9 1.32732 9 1.2611V1.01142H8.75C8.6837 1.01142 8.62011 0.985112 8.57322 0.938288C8.52634 0.891463 8.5 0.827955 8.5 0.761735C8.5 0.695515 8.52634 0.632007 8.57322 0.585183C8.62011 0.538358 8.6837 0.512052 8.75 0.512052H9V0.26237C9 0.19615 9.02634 0.132642 9.07322 0.0858171C9.12011 0.0389925 9.1837 0.0126867 9.25 0.0126867C9.3163 0.0126867 9.37989 0.0389925 9.42678 0.0858171C9.47366 0.132642 9.5 0.19615 9.5 0.26237V0.512052ZM1 0.512052H1.25C1.3163 0.512052 1.37989 0.538358 1.42678 0.585183C1.47366 0.632007 1.5 0.695515 1.5 0.761735C1.5 0.827955 1.47366 0.891463 1.42678 0.938288C1.37989 0.985112 1.3163 1.01142 1.25 1.01142H1V1.2611C1 1.32732 0.973661 1.39083 0.926777 1.43765C0.879892 1.48448 0.816304 1.51078 0.75 1.51078C0.683696 1.51078 0.620108 1.48448 0.573223 1.43765C0.526339 1.39083 0.5 1.32732 0.5 1.2611V1.01142H0.25C0.183696 1.01142 0.120108 0.985112 0.0732231 0.938288C0.0263386 0.891463 0 0.827955 0 0.761735C0 0.695515 0.0263386 0.632007 0.0732231 0.585183C0.120108 0.538358 0.183696 0.512052 0.25 0.512052H0.5V0.26237C0.5 0.19615 0.526339 0.132642 0.573223 0.0858171C0.620108 0.0389925 0.683696 0.0126867 0.75 0.0126867C0.816304 0.0126867 0.879892 0.0389925 0.926777 0.0858171C0.973661 0.132642 1 0.19615 1 0.26237V0.512052Z" fill="white"/>
</svg>
