<svg width="14" height="10" viewBox="0 0 14 10" fill="none" xmlns="http://www.w3.org/2000/svg">
<path fill-rule="evenodd" clip-rule="evenodd" d="M7 0.491013C4.21307 0.491013 2.25805 1.69243 2.25805 1.69243C3.32915 0.731297 5.20097 0.177601 5.20097 0.177601L5.02419 0C3.26676 0.0313412 1.67571 1.25365 1.67571 1.25365C-0.112918 5.00415 0.00147105 8.24275 0.00147105 8.24275C1.45733 10.1337 3.62032 9.99786 3.62032 9.99786L4.35865 9.05762C3.05878 8.77555 2.23726 7.61592 2.23726 7.61592C2.23726 7.61592 4.19227 8.95315 7 8.95315C9.80773 8.95315 11.7627 7.61592 11.7627 7.61592C11.7627 7.61592 10.9412 8.77555 9.64135 9.05762L10.3797 9.99786C10.3797 9.99786 12.5427 10.1337 13.9985 8.24275C13.9985 8.24275 14.1129 5.00415 12.3243 1.25365C12.3243 1.25365 10.7332 0.0313412 8.97581 0L8.79903 0.177601C8.79903 0.177601 10.6708 0.731297 11.7419 1.69243C11.7419 1.69243 9.78693 0.491013 7 0.491013ZM6.06409 5.77724C6.07449 5.04594 5.52334 4.45046 4.84741 4.45046C4.17147 4.45046 3.64112 5.04594 3.64112 5.77724C3.64112 6.49809 4.18187 7.10401 4.84741 7.10401C5.52334 7.10401 6.06409 6.49809 6.06409 5.77724ZM10.4005 5.77724C10.4005 5.04594 9.85972 4.45046 9.18379 4.45046C8.50786 4.45046 7.97751 5.04594 7.97751 5.77724C7.97751 6.49809 8.51825 7.10401 9.18379 7.10401C9.85972 7.10401 10.4005 6.49809 10.4005 5.77724Z" fill="white"/>
</svg>
