<svg width="17" height="17" viewBox="0 0 17 17" fill="none" xmlns="http://www.w3.org/2000/svg">
<path d="M11.6717 6.506C11.9939 6.82822 12.253 7.20757 12.4359 7.62444C12.4462 7.64772 12.4561 7.67113 12.4659 7.69465C12.65 8.13916 12.7448 8.6156 12.7448 9.09674C12.7448 9.57789 12.65 10.0543 12.4659 10.4988C12.2976 10.9052 12.0576 11.2776 11.7578 11.5984C11.7296 11.6286 11.7009 11.6583 11.6717 11.6875L10.0238 10.0397C10.0304 10.0331 10.0369 10.0264 10.0434 10.0197C10.158 9.90017 10.2494 9.76023 10.3129 9.60705C10.3799 9.44526 10.4144 9.27186 10.4144 9.09674C10.4144 8.92163 10.3799 8.74822 10.3129 8.58644C10.2459 8.42465 10.1477 8.27765 10.0238 8.15382L11.6717 6.506Z" fill="white"/>
<path d="M8.84538 6.97702L10.494 5.32835L11.6717 6.506L10.023 8.15463L8.84538 6.97702Z" fill="white"/>
<path d="M2.25074 15.9269C2.59096 16.2671 2.99486 16.537 3.43939 16.7211C3.88391 16.9052 4.36034 17 4.84149 17C5.32264 17 5.79907 16.9052 6.2436 16.7211C6.68812 16.537 7.09202 16.2671 7.43224 15.9269L5.78442 14.2791C5.66059 14.4029 5.51359 14.5011 5.3518 14.5681C5.19001 14.6351 5.01661 14.6696 4.84149 14.6696C4.66637 14.6696 4.49297 14.6351 4.33118 14.5681C4.16939 14.5011 4.02239 14.4029 3.89856 14.2791L2.25074 15.9269Z" fill="white"/>
<path d="M1.07312 14.7493C0.732902 14.4091 0.463023 14.0052 0.278896 13.5606C0.0947689 13.1161 -1.05158e-08 12.6397 0 12.1585C1.05158e-08 11.6774 0.094769 11.201 0.278896 10.7564C0.463023 10.3119 0.732902 9.90802 1.07312 9.5678L2.72084 11.2155C2.597 11.3393 2.49877 11.4864 2.43174 11.6482C2.36472 11.81 2.33023 11.9834 2.33023 12.1585C2.33023 12.3337 2.36472 12.5071 2.43174 12.6689C2.49877 12.8307 2.597 12.9777 2.72084 13.1016L1.07312 14.7493Z" fill="white"/>
<path d="M2.72178 13.1006L1.07312 14.7493L2.25074 15.9269L3.8994 14.2782L2.72178 13.1006Z" fill="white"/>
<path d="M5.78358 14.2782L7.63072 12.4311L10.023 10.0388L11.6717 11.6875L7.43224 15.9269L5.78358 14.2782Z" fill="white"/>
<path d="M15.9274 2.24976C16.2674 2.58982 16.5372 2.99354 16.7212 3.43785C16.9053 3.88217 17 4.35838 17 4.83931C17 5.32023 16.9053 5.79644 16.7212 6.24076C16.5372 6.68507 16.2674 7.08879 15.9274 7.42885L14.2803 5.7818C14.4041 5.65803 14.5023 5.51109 14.5692 5.34938C14.6362 5.18767 14.6707 5.01434 14.6707 4.83931C14.6707 4.66427 14.6362 4.49095 14.5692 4.32923C14.5023 4.16752 14.4041 4.02058 14.2803 3.89681L15.9274 2.24976Z" fill="white"/>
<path d="M14.7503 1.07263C14.4102 0.732561 14.0065 0.462808 13.5622 0.278766C13.1179 0.0947249 12.6417 -1.05109e-08 12.1607 0C11.6798 1.05109e-08 11.2036 0.0947249 10.7593 0.278766C10.315 0.462808 9.91125 0.732561 9.57119 1.07263L11.2181 2.71958C11.3419 2.59579 11.4889 2.4976 11.6506 2.43061C11.8123 2.36362 11.9857 2.32914 12.1607 2.32914C12.3358 2.32914 12.5091 2.36362 12.6709 2.43061C12.8326 2.4976 12.9796 2.59579 13.1033 2.71958L14.7503 1.07263Z" fill="white"/>
<path d="M13.1024 2.72054L14.7503 1.07263L15.9274 2.24976L14.2795 3.89761L13.1024 2.72054Z" fill="white"/>
<path d="M5.33373 10.4892C5.01114 10.1666 4.75182 9.78673 4.56892 9.36927C4.55901 9.34665 4.54932 9.32392 4.53987 9.30109C4.35582 8.85677 4.2611 8.38056 4.2611 7.89963C4.2611 7.41871 4.35582 6.9425 4.53987 6.49818C4.72035 6.06246 4.98326 5.66578 5.31408 5.32989C5.3206 5.32326 5.32715 5.31666 5.33373 5.31009L6.98069 6.95704C6.8569 7.08082 6.75871 7.22778 6.69172 7.38951C6.62473 7.55124 6.59025 7.72458 6.59025 7.89963C6.59025 8.07469 6.62473 8.24803 6.69172 8.40976C6.75871 8.57149 6.8569 8.71845 6.98069 8.84223L5.33373 10.4892Z" fill="white"/>
<path d="M6.98162 8.84126L5.33373 10.4892L6.5108 11.6663L8.1587 10.0183L6.98162 8.84126Z" fill="white"/>
<path d="M5.33373 5.31009L9.57119 1.07263L11.2191 2.72054L9.37557 4.56405L7.01764 6.92197L6.98163 6.95798L5.33373 5.31009Z" fill="white"/>
<path fill-rule="evenodd" clip-rule="evenodd" d="M3.19283 7.44807L1.07312 9.5678L2.72179 11.2164L3.63005 10.3081C3.2098 9.29498 3.10942 8.67002 3.19283 7.44807ZM5.31408 5.32989C4.98326 5.66578 4.72035 6.06246 4.53987 6.49818C4.35582 6.9425 4.2611 7.41871 4.2611 7.89963C4.2611 8.38056 4.35582 8.85677 4.53987 9.30109C4.54932 9.32392 4.55901 9.34665 4.56892 9.36927L6.9612 6.977L5.31408 5.32989Z" fill="white"/>
<path fill-rule="evenodd" clip-rule="evenodd" d="M12.4359 7.62444L10.042 10.0183L10.0434 10.0197L11.6899 11.6663L11.7578 11.5984C12.0576 11.2776 12.2976 10.9052 12.4659 10.4988C12.65 10.0543 12.7448 9.57789 12.7448 9.09674C12.7448 8.6156 12.65 8.13916 12.4659 7.69465C12.4561 7.67113 12.4462 7.64772 12.4359 7.62444ZM13.3734 6.68696C13.7746 7.71838 13.854 8.35026 13.8086 9.54756L15.9274 7.42885L14.2795 5.78091L13.3734 6.68696Z" fill="white"/>
<path fill-rule="evenodd" clip-rule="evenodd" d="M6.9612 12.0492C6.80136 11.9342 6.65069 11.8062 6.5108 11.6663L8.15786 10.0192C8.28163 10.143 8.42857 10.2412 8.59028 10.3081L6.9612 12.0492ZM7.63072 12.4311C7.65334 12.441 7.67606 12.4507 7.6989 12.4601C8.14322 12.6442 8.61943 12.7389 9.10036 12.7389C9.58128 12.7389 10.0575 12.6442 10.5018 12.4601C10.9461 12.2761 11.3498 12.0063 11.6899 11.6663L10.0434 10.0197C10.0369 10.0264 10.0304 10.0331 10.0238 10.0397L10.023 10.0388L7.63072 12.4311Z" fill="white"/>
<path fill-rule="evenodd" clip-rule="evenodd" d="M10.042 4.94423C10.2024 5.05957 10.3537 5.18797 10.494 5.32835L8.84632 6.97606C8.72248 6.85222 8.57546 6.75398 8.41365 6.68696L10.042 4.94423ZM9.37557 4.56405C9.35229 4.55383 9.3289 4.54386 9.30539 4.53412C8.86087 4.34999 8.38444 4.25523 7.90329 4.25523C7.42214 4.25523 6.94571 4.34999 6.50118 4.53412C6.05666 4.71825 5.65276 4.98812 5.31254 5.32835L5.31408 5.32989L6.96026 6.97606C6.97887 6.95744 6.99801 6.93941 7.01764 6.92197L9.37557 4.56405Z" fill="white"/>
</svg>
