<?xml version="1.0" encoding="UTF-8"?>
<svg id="Layer_1" data-name="Layer 1" xmlns="http://www.w3.org/2000/svg" viewBox="0 0 16.39 13.93">
  <defs>
    <style>
      .cls-1 {
        fill: #cfcdcd;
        stroke-width: 0px;
      }
    </style>
  </defs>
  <path class="cls-1" d="m8.46.1c-.16-.13-.38-.13-.54,0L.14,6.5c-.13.11-.18.28-.12.44s.22.26.39.26h1.38v6.33c0,.22.19.4.41.4h3.91c.23,0,.41-.18.41-.4v-4.16h3.31v4.16c0,.22.19.4.41.4h3.91c.23,0,.41-.18.41-.4v-6.33h1.39c.17,0,.33-.1.39-.26.06-.15.01-.33-.12-.44L8.46.1Z"/>
</svg>