<svg width="14" height="14" viewBox="0 0 14 14" fill="none" xmlns="http://www.w3.org/2000/svg">
<path fill-rule="evenodd" clip-rule="evenodd" d="M9.83278 1.21739H4.16722C2.53808 1.21739 1.21739 2.53808 1.21739 4.16722V9.83278C1.21739 11.4619 2.53808 12.7826 4.16722 12.7826H9.83278C11.4619 12.7826 12.7826 11.4619 12.7826 9.83278V4.16722C12.7826 2.53808 11.4619 1.21739 9.83278 1.21739ZM4.16722 0C1.86573 0 0 1.86573 0 4.16722V9.83278C0 12.1343 1.86573 14 4.16722 14H9.83278C12.1343 14 14 12.1343 14 9.83278V4.16722C14 1.86573 12.1343 0 9.83278 0H4.16722Z" fill="white"/>
<path fill-rule="evenodd" clip-rule="evenodd" d="M6.82051 9.50226C8.10335 9.50226 9.14329 8.46232 9.14329 7.17949C9.14329 5.89665 8.10335 4.85671 6.82051 4.85671C5.53768 4.85671 4.49774 5.89665 4.49774 7.17949C4.49774 8.46232 5.53768 9.50226 6.82051 9.50226ZM6.82051 10.7692C8.80307 10.7692 10.4103 9.16205 10.4103 7.17949C10.4103 5.19693 8.80307 3.58974 6.82051 3.58974C4.83795 3.58974 3.23077 5.19693 3.23077 7.17949C3.23077 9.16205 4.83795 10.7692 6.82051 10.7692Z" fill="white"/>
<path d="M11.4872 3.41026C11.4872 3.9059 11.0854 4.30769 10.5897 4.30769C10.0941 4.30769 9.69231 3.9059 9.69231 3.41026C9.69231 2.91462 10.0941 2.51282 10.5897 2.51282C11.0854 2.51282 11.4872 2.91462 11.4872 3.41026Z" fill="white"/>
</svg>
