<svg width="20" height="19" viewBox="0 0 20 19" fill="none" xmlns="http://www.w3.org/2000/svg">
<path d="M6.73527 6.2692C5.19245 5.42471 4.6412 3.45004 5.50681 1.86864C6.37242 0.287254 8.33288 -0.31258 9.8757 0.531916C11.4185 1.37641 11.9698 3.35109 11.1042 4.93248C10.2386 6.51387 8.27809 7.1137 6.73527 6.2692Z" fill="white"/>
<path d="M15.6437 11.1454L12.4903 9.41934C11.8163 9.05039 11.5758 8.18887 11.9539 7.49797L13.7232 4.2657C14.1014 3.5748 14.9567 3.3131 15.6307 3.68205L18.7842 5.40816C19.4582 5.77711 19.6987 6.63863 19.3205 7.32953L17.5513 10.5618C17.1731 11.2527 16.3178 11.5144 15.6437 11.1454Z" fill="white"/>
<path d="M4.3754 14.3241L1.22196 12.598C0.547913 12.229 0.307411 11.3675 0.685589 10.6766L2.45484 7.44432C2.83302 6.75342 3.68834 6.49172 4.36239 6.86068L7.51583 8.58678C8.18988 8.95574 8.43038 9.81725 8.0522 10.5082L6.28294 13.7404C5.90477 14.4313 5.04945 14.693 4.3754 14.3241Z" fill="white"/>
<path d="M11.7071 18.3373L8.55371 16.6112C7.87966 16.2422 7.63916 15.3807 8.01734 14.6898L9.78659 11.4575C10.1648 10.7666 11.0201 10.5049 11.6941 10.8739L14.8476 12.6C15.5216 12.9689 15.7621 13.8304 15.3839 14.5213L13.6147 17.7536C13.2365 18.4445 12.3812 18.7062 11.7071 18.3373Z" fill="white"/>
</svg>
