<svg width="16" height="10" viewBox="0 0 16 10" fill="none" xmlns="http://www.w3.org/2000/svg">
<path d="M14.7692 0H1.23077C0.904349 0 0.591298 0.131696 0.360484 0.366117C0.12967 0.600537 0 0.918479 0 1.25V8.75C0 9.08152 0.12967 9.39946 0.360484 9.63388C0.591298 9.8683 0.904349 10 1.23077 10H14.7692C15.0957 10 15.4087 9.8683 15.6395 9.63388C15.8703 9.39946 16 9.08152 16 8.75V1.25C16 0.918479 15.8703 0.600537 15.6395 0.366117C15.4087 0.131696 15.0957 0 14.7692 0ZM1.23077 8.75V1.25H14.7692V8.75H1.23077Z" fill="white"/>
<path d="M3.69231 1.875H2.46154C2.29833 1.875 2.1418 1.94085 2.0264 2.05806C1.91099 2.17527 1.84615 2.33424 1.84615 2.5C1.84615 2.66576 1.91099 2.82473 2.0264 2.94194C2.1418 3.05915 2.29833 3.125 2.46154 3.125H3.69231C3.85552 3.125 4.01204 3.05915 4.12745 2.94194C4.24286 2.82473 4.30769 2.66576 4.30769 2.5C4.30769 2.33424 4.24286 2.17527 4.12745 2.05806C4.01204 1.94085 3.85552 1.875 3.69231 1.875Z" fill="white"/>
<path d="M5.53846 3.125H6.76923C6.93244 3.125 7.08897 3.05915 7.20437 2.94194C7.31978 2.82473 7.38462 2.66576 7.38462 2.5C7.38462 2.33424 7.31978 2.17527 7.20437 2.05806C7.08897 1.94085 6.93244 1.875 6.76923 1.875H5.53846C5.37525 1.875 5.21873 1.94085 5.10332 2.05806C4.98791 2.17527 4.92308 2.33424 4.92308 2.5C4.92308 2.66576 4.98791 2.82473 5.10332 2.94194C5.21873 3.05915 5.37525 3.125 5.53846 3.125Z" fill="white"/>
<path d="M10.4615 1.875H9.23077C9.06756 1.875 8.91103 1.94085 8.79563 2.05806C8.68022 2.17527 8.61539 2.33424 8.61539 2.5C8.61539 2.66576 8.68022 2.82473 8.79563 2.94194C8.91103 3.05915 9.06756 3.125 9.23077 3.125H10.4615C10.6247 3.125 10.7813 3.05915 10.8967 2.94194C11.0121 2.82473 11.0769 2.66576 11.0769 2.5C11.0769 2.33424 11.0121 2.17527 10.8967 2.05806C10.7813 1.94085 10.6247 1.875 10.4615 1.875Z" fill="white"/>
<path d="M13.5385 1.875H12.3077C12.1445 1.875 11.988 1.94085 11.8726 2.05806C11.7571 2.17527 11.6923 2.33424 11.6923 2.5C11.6923 2.66576 11.7571 2.82473 11.8726 2.94194C11.988 3.05915 12.1445 3.125 12.3077 3.125H13.5385C13.7017 3.125 13.8582 3.05915 13.9736 2.94194C14.089 2.82473 14.1538 2.66576 14.1538 2.5C14.1538 2.33424 14.089 2.17527 13.9736 2.05806C13.8582 1.94085 13.7017 1.875 13.5385 1.875Z" fill="white"/>
<path d="M3.69231 4.375H2.46154C2.29833 4.375 2.1418 4.44085 2.0264 4.55806C1.91099 4.67527 1.84615 4.83424 1.84615 5C1.84615 5.16576 1.91099 5.32473 2.0264 5.44194C2.1418 5.55915 2.29833 5.625 2.46154 5.625H3.69231C3.85552 5.625 4.01204 5.55915 4.12745 5.44194C4.24286 5.32473 4.30769 5.16576 4.30769 5C4.30769 4.83424 4.24286 4.67527 4.12745 4.55806C4.01204 4.44085 3.85552 4.375 3.69231 4.375Z" fill="white"/>
<path d="M5.53846 5.625H6.76923C6.93244 5.625 7.08897 5.55915 7.20437 5.44194C7.31978 5.32473 7.38462 5.16576 7.38462 5C7.38462 4.83424 7.31978 4.67527 7.20437 4.55806C7.08897 4.44085 6.93244 4.375 6.76923 4.375H5.53846C5.37525 4.375 5.21873 4.44085 5.10332 4.55806C4.98791 4.67527 4.92308 4.83424 4.92308 5C4.92308 5.16576 4.98791 5.32473 5.10332 5.44194C5.21873 5.55915 5.37525 5.625 5.53846 5.625Z" fill="white"/>
<path d="M10.4615 4.375H9.23077C9.06756 4.375 8.91103 4.44085 8.79563 4.55806C8.68022 4.67527 8.61539 4.83424 8.61539 5C8.61539 5.16576 8.68022 5.32473 8.79563 5.44194C8.91103 5.55915 9.06756 5.625 9.23077 5.625H10.4615C10.6247 5.625 10.7813 5.55915 10.8967 5.44194C11.0121 5.32473 11.0769 5.16576 11.0769 5C11.0769 4.83424 11.0121 4.67527 10.8967 4.55806C10.7813 4.44085 10.6247 4.375 10.4615 4.375Z" fill="white"/>
<path d="M13.5385 4.375H12.3077C12.1445 4.375 11.988 4.44085 11.8726 4.55806C11.7571 4.67527 11.6923 4.83424 11.6923 5C11.6923 5.16576 11.7571 5.32473 11.8726 5.44194C11.988 5.55915 12.1445 5.625 12.3077 5.625H13.5385C13.7017 5.625 13.8582 5.55915 13.9736 5.44194C14.089 5.32473 14.1538 5.16576 14.1538 5C14.1538 4.83424 14.089 4.67527 13.9736 4.55806C13.8582 4.44085 13.7017 4.375 13.5385 4.375Z" fill="white"/>
<path d="M13.5385 6.875H12.3077C12.1445 6.875 11.988 6.94085 11.8726 7.05806C11.7571 7.17527 11.6923 7.33424 11.6923 7.5C11.6923 7.66576 11.7571 7.82473 11.8726 7.94194C11.988 8.05915 12.1445 8.125 12.3077 8.125H13.5385C13.7017 8.125 13.8582 8.05915 13.9736 7.94194C14.089 7.82473 14.1538 7.66576 14.1538 7.5C14.1538 7.33424 14.089 7.17527 13.9736 7.05806C13.8582 6.94085 13.7017 6.875 13.5385 6.875Z" fill="white"/>
<path d="M3.69231 6.875H2.46154C2.29833 6.875 2.1418 6.94085 2.0264 7.05806C1.91099 7.17527 1.84615 7.33424 1.84615 7.5C1.84615 7.66576 1.91099 7.82473 2.0264 7.94194C2.1418 8.05915 2.29833 8.125 2.46154 8.125H3.69231C3.85552 8.125 4.01204 8.05915 4.12745 7.94194C4.24286 7.82473 4.30769 7.66576 4.30769 7.5C4.30769 7.33424 4.24286 7.17527 4.12745 7.05806C4.01204 6.94085 3.85552 6.875 3.69231 6.875Z" fill="white"/>
<path d="M10.4615 6.875H5.53846C5.37525 6.875 5.21873 6.94085 5.10332 7.05806C4.98791 7.17527 4.92308 7.33424 4.92308 7.5C4.92308 7.66576 4.98791 7.82473 5.10332 7.94194C5.21873 8.05915 5.37525 8.125 5.53846 8.125H10.4615C10.6247 8.125 10.7813 8.05915 10.8967 7.94194C11.0121 7.82473 11.0769 7.66576 11.0769 7.5C11.0769 7.33424 11.0121 7.17527 10.8967 7.05806C10.7813 6.94085 10.6247 6.875 10.4615 6.875Z" fill="white"/>
</svg>
