<svg width="14" height="15" viewBox="0 0 14 15" fill="none" xmlns="http://www.w3.org/2000/svg">
<path fill-rule="evenodd" clip-rule="evenodd" d="M2.08415 12.3008C1.68508 12.5184 1.17766 12.3744 0.951398 11.9804L0.112399 10.5191C-0.114135 10.1245 0.0138261 9.61296 0.403037 9.3735L0.994192 9.00979C1.21893 8.87152 1.401 8.5446 1.40086 8.27956L1.40002 6.7196C1.39988 6.45458 1.21795 6.12787 0.992827 5.98937L0.401656 5.62565C0.0145962 5.38751 -0.115061 4.87425 0.111438 4.48032L0.951333 3.01959C1.17811 2.62518 1.68311 2.48057 2.08425 2.6993L2.69353 3.03152C2.92517 3.15782 3.29828 3.15289 3.52694 3.0205L4.87278 2.24124C5.10143 2.10886 5.29235 1.7875 5.29925 1.52249L5.31736 0.826574C5.32922 0.370932 5.70707 0.00133157 6.16007 0.0010488L7.83988 1.63787e-07C8.29343 -0.000282933 8.67067 0.366459 8.68259 0.824828L8.70071 1.52102C8.7076 1.7857 8.8985 2.10769 9.12714 2.24024L10.4728 3.02037C10.7014 3.15291 11.0742 3.15814 11.3063 3.03158L11.9159 2.69924C12.3149 2.48165 12.8223 2.62558 13.0486 3.01965L13.8876 4.48092C14.1141 4.87547 13.9862 5.38704 13.597 5.6265L13.0058 5.99021C12.7811 6.12848 12.599 6.4554 12.5991 6.72044L12.6 8.2804C12.6001 8.54542 12.7821 8.87213 13.0072 9.01063L13.5983 9.37435C13.9854 9.61249 14.1151 10.1258 13.8886 10.5197L13.0487 11.9804C12.8219 12.3748 12.3169 12.5194 11.9157 12.3007L11.3065 11.9685C11.0748 11.8422 10.7017 11.8471 10.4731 11.9795L9.12722 12.7588C8.89857 12.8911 8.70765 13.2125 8.70075 13.4775L8.68264 14.1734C8.67078 14.6291 8.29293 14.9987 7.83993 14.999L6.16012 15C5.70657 15.0003 5.32933 14.6335 5.31741 14.1752L5.29929 13.479C5.2924 13.2143 5.1015 12.8923 4.87286 12.7598L3.52717 11.9796C3.29855 11.8471 2.92576 11.8419 2.69366 11.9684L2.08415 12.3008ZM5.36068 10.3511C6.92883 11.2602 8.93401 10.7207 9.83938 9.14607C10.7448 7.57146 10.2075 5.55802 8.63932 4.64892C7.07117 3.73981 5.06599 4.27932 4.16061 5.85393C3.25524 7.42854 3.79253 9.44198 5.36068 10.3511Z" fill="white"/>
</svg>
