<svg width="16" height="15" viewBox="0 0 16 15" fill="none" xmlns="http://www.w3.org/2000/svg">
<path d="M6.26812 3.66182C5.92957 3.48469 5.61562 3.26893 5.33493 3.02063C4.76803 2.51879 4.31705 1.87676 3.99477 1.11265L3.52561 0L3.05635 1.11274C2.73407 1.87695 2.2832 2.51898 1.71629 3.02063C1.4343 3.27015 1.12045 3.4861 0.783804 3.66238L0 4.07289L0.783804 4.48341C1.12065 4.65988 1.4344 4.87573 1.71619 5.12516C2.2831 5.62672 2.73397 6.26865 3.05635 7.03295L3.52561 8.1457L3.99487 7.03295C4.31715 6.26884 4.76803 5.62681 5.33503 5.12506C5.61693 4.87564 5.93097 4.6596 6.26832 4.48294L7.05263 4.07233L6.26812 3.66182Z" fill="#FF8ECB"/>
<path d="M14.4462 8.51713C14.1053 8.33719 13.7893 8.11828 13.507 7.86649C12.9305 7.35204 12.4703 6.68996 12.1396 5.8989L11.2097 3.6755L10.2799 5.8989C9.94905 6.68987 9.48903 7.35194 8.91236 7.86649C8.6287 8.11959 8.31299 8.33869 7.9741 8.5176L6.42105 9.3378L7.9742 10.1579C8.31319 10.3369 8.6289 10.556 8.91236 10.809C9.48903 11.3236 9.94915 11.9856 10.28 12.7766L11.2098 15L12.1397 12.7766C12.4705 11.9855 12.9306 11.3236 13.5073 10.8089C13.7911 10.5557 14.1071 10.3364 14.4463 10.1574L16 9.33714L14.4462 8.51713Z" fill="#FF8ECB"/>
</svg>
