<svg width="16" height="20" viewBox="0 0 16 20" fill="none" xmlns="http://www.w3.org/2000/svg">
<path d="M9.66605 13.8156L7.54277 15.6486C7.14786 15.9895 7.14914 16.5923 7.54549 16.9317C7.88617 17.2233 8.39821 17.2117 8.72477 16.905L11.7925 14.0236C12.0927 13.7416 12.063 13.2634 11.73 13.0191L9.35072 11.2732C8.74043 10.8253 8.51321 10.0325 8.79653 9.33952L9.32862 8.03804L10.1692 6.55772C10.1712 6.55417 10.1731 6.55085 10.175 6.54724C10.205 6.49039 10.4633 5.97489 10.1722 5.56196C9.73281 4.9386 8.90906 4.70924 8.13683 4.65887L6.79788 4.57153L6.20154 5.59257C6.1493 5.68202 6.10574 5.77605 6.07141 5.87344L4.60834 10.0247C4.50706 10.3121 4.6194 10.63 4.88048 10.7948L9.66605 13.8156Z" fill="white"/>
<path d="M3.50934 14.5996L4.41022 12L6.28571 13.312L5.45605 15.4781C5.21608 16.1046 4.84432 16.6768 4.36403 17.1589L1.85067 19.6815C1.46571 20.0679 0.837818 20.1078 0.403362 19.7735C-0.0968209 19.3886 -0.138142 18.6709 0.314792 18.2353L2.56242 16.0733C2.99271 15.6595 3.31691 15.1549 3.50934 14.5996Z" fill="white"/>
<path d="M11.4286 2.28571C11.4286 3.54808 10.4053 4.57143 9.14289 4.57143C7.88053 4.57143 6.85718 3.54808 6.85718 2.28571C6.85718 1.02335 7.88053 0 9.14289 0C10.4053 0 11.4286 1.02335 11.4286 2.28571Z" fill="white"/>
<path d="M1.94904 5.72166C1.97557 5.17073 2.44368 4.74563 2.99461 4.77215C3.54553 4.79868 3.97064 5.2668 3.94411 5.81772L3.77098 9.41337C3.74445 9.96429 3.27633 10.3894 2.72541 10.3629C2.17448 10.3363 1.74937 9.86822 1.7759 9.3173L1.94904 5.72166Z" fill="white"/>
<path d="M6.6594 4.66445C7.21096 4.66235 7.65979 5.10777 7.66189 5.65933C7.66399 6.21089 7.21857 6.65972 6.66701 6.66182L2.95992 6.67595C2.40836 6.67805 1.95953 6.23263 1.95742 5.68107C1.95532 5.12951 2.40074 4.68068 2.9523 4.67858L6.6594 4.66445Z" fill="white"/>
<path d="M10.051 9.79798C10.3175 10.2809 10.925 10.4563 11.4079 10.1898C11.8909 9.92332 12.0663 9.31581 11.7998 8.8329L10.0605 5.68118C9.79395 5.19827 9.18644 5.02284 8.70353 5.28934C8.22063 5.55584 8.04519 6.16336 8.31169 6.64626L10.051 9.79798Z" fill="white"/>
<path d="M14.7453 8.67211C15.2414 8.43103 15.4481 7.83344 15.207 7.33735C14.966 6.84126 14.3684 6.63454 13.8723 6.87561L10.538 8.49592C10.0419 8.737 9.83521 9.33459 10.0763 9.83068C10.3174 10.3268 10.915 10.5335 11.411 10.2924L14.7453 8.67211Z" fill="white"/>
</svg>
