<svg width="11" height="12" viewBox="0 0 11 12" fill="none" xmlns="http://www.w3.org/2000/svg">
<path fill-rule="evenodd" clip-rule="evenodd" d="M5.5 0C2.47091 0 0.0119411 2.6883 0.0119411 5.99987C0.0119411 9.31145 2.47091 11.9997 5.5 11.9997C8.52909 11.9997 10.9881 9.31145 10.9881 5.99987C10.9881 2.6883 8.52909 0 5.5 0ZM5.5 1.03079C8.00863 1.03079 10.0452 3.25729 10.0452 5.99987C10.0452 8.74245 8.00863 10.969 5.5 10.969C2.99137 10.969 0.954798 8.74245 0.954798 5.99987C0.954798 3.25729 2.99137 1.03079 5.5 1.03079Z" fill="white"/>
<path fill-rule="evenodd" clip-rule="evenodd" d="M4.08572 5.99994C4.08572 4.28098 4.36292 2.75404 4.80606 1.80954C4.93146 1.54241 5.06629 1.3263 5.21714 1.18104C5.30766 1.09318 5.39911 1.03079 5.5 1.03079C5.60089 1.03079 5.69235 1.09318 5.78286 1.18104C5.93372 1.3263 6.06855 1.54241 6.19395 1.80954C6.63709 2.75404 6.91429 4.28098 6.91429 5.99994C6.91429 7.7189 6.63709 9.24584 6.19395 10.191C6.06855 10.4582 5.93372 10.6736 5.78286 10.8195C5.69235 10.9074 5.60089 10.9698 5.5 10.9698C5.29729 10.9698 5.13701 10.7707 4.97201 10.5014C4.59392 9.88566 4.31483 8.86959 4.17623 7.65442C4.14418 7.37241 3.90941 7.1719 3.65106 7.20662C3.39272 7.24204 3.20886 7.49925 3.24092 7.78196C3.4012 9.19128 3.751 10.3618 4.18943 11.076C4.56846 11.6939 5.03423 12 5.5 12C5.94126 12 6.38157 11.7279 6.74834 11.1745C7.39137 10.2038 7.85715 8.25315 7.85715 5.99994C7.85715 3.74673 7.39137 1.79678 6.74834 0.825348C6.38157 0.271966 5.94126 0 5.5 0C5.05874 0 4.61844 0.271966 4.25166 0.825348C3.60864 1.79678 3.14286 3.74673 3.14286 5.99994C3.14286 6.28478 3.35406 6.51577 3.61429 6.51577C3.87452 6.51577 4.08572 6.28478 4.08572 5.99994Z" fill="white"/>
<path fill-rule="evenodd" clip-rule="evenodd" d="M0.471429 6.51527H3.61429C3.87451 6.51527 4.08572 6.28444 4.08572 5.99994C4.08572 5.71544 3.87451 5.48448 3.61429 5.48448H0.471429C0.2112 5.48448 0 5.71537 0 5.99987C0 6.28437 0.2112 6.51527 0.471429 6.51527Z" fill="white"/>
<path fill-rule="evenodd" clip-rule="evenodd" d="M4.87143 6.51527H10.5286C10.7888 6.51527 11 6.28437 11 5.99987C11 5.71537 10.7888 5.48448 10.5286 5.48448H4.87143C4.6112 5.48448 4.4 5.71537 4.4 5.99987C4.4 6.28437 4.6112 6.51527 4.87143 6.51527Z" fill="white"/>
</svg>
