<?xml version="1.0" encoding="UTF-8"?>
<svg id="Layer_1" data-name="Layer 1" xmlns="http://www.w3.org/2000/svg" viewBox="0 0 18.03 19.66">
  <defs>
    <style>
      .cls-1 {
        fill: #cfcdcd;
        stroke-width: 0px;
      }
    </style>
  </defs>
  <path class="cls-1" d="m7.75,9.28h10.28V.54c0-.08-.02-.16-.06-.23-.03-.07-.08-.14-.15-.19-.06-.05-.14-.09-.21-.11s-.16-.02-.24,0L7.75,1.86v7.41Z"/>
  <path class="cls-1" d="m6.65,9.28V2.07L.44,3.28c-.13.02-.24.09-.32.2C.04,3.58,0,3.7,0,3.83v5.44h6.65Z"/>
  <path class="cls-1" d="m7.75,10.38v7.41l9.63,1.87s.07,0,.1,0c.15,0,.28-.06.39-.16.1-.1.16-.25.16-.39v-8.72H7.75Z"/>
  <path class="cls-1" d="m6.65,10.38H0v5.45c0,.13.04.26.12.36.08.1.2.17.32.2l6.21,1.2v-7.21Z"/>
</svg>