<svg width="25" height="19" viewBox="0 0 25 19" fill="none" xmlns="http://www.w3.org/2000/svg">
<path fill-rule="evenodd" clip-rule="evenodd" d="M22.2816 0.581176C23.3525 0.894118 24.1968 1.81059 24.4851 2.97294C25.0205 5.09647 24.9999 9.52235 24.9999 9.52235C24.9999 9.52235 24.9999 13.9259 24.4851 16.0494C24.1968 17.2118 23.3525 18.1282 22.2816 18.4412C20.3253 19 12.4999 19 12.4999 19C12.4999 19 4.6952 19 2.71828 18.4188C1.64744 18.1059 0.803127 17.1894 0.514825 16.0271C0 13.9259 0 9.5 0 9.5C0 9.5 0 5.09647 0.514825 2.97294C0.803127 1.81059 1.66803 0.871765 2.71828 0.558824C4.67461 0 12.4999 0 12.4999 0C12.4999 0 20.3253 0 22.2816 0.581176ZM16.5156 9.5L10.0082 13.5682V5.43176L16.5156 9.5Z" fill="#FF5454"/>
</svg>
