<?xml version="1.0" encoding="UTF-8"?>
<svg id="Layer_1" data-name="Layer 1" xmlns="http://www.w3.org/2000/svg" viewBox="0 0 25 19">
  <defs>
    <style>
      .cls-1 {
        fill: #fff;
        fill-rule: evenodd;
        stroke-width: 0px;
      }
    </style>
  </defs>
  <path class="cls-1" d="m22.28.58c1.07.31,1.92,1.23,2.2,2.39.54,2.12.51,6.55.51,6.55,0,0,0,4.4-.51,6.53-.29,1.16-1.13,2.08-2.2,2.39-1.96.56-9.78.56-9.78.56,0,0-7.8,0-9.78-.58-1.07-.31-1.92-1.23-2.2-2.39-.51-2.1-.51-6.53-.51-6.53,0,0,0-4.4.51-6.53C.8,1.81,1.67.87,2.72.56c1.96-.56,9.78-.56,9.78-.56,0,0,7.83,0,9.78.58Zm-5.77,8.92l-6.51,4.07V5.43l6.51,4.07Z"/>
</svg>